<?xml version="1.0" standalone="no"?>
<!DOCTYPE svg PUBLIC "-//W3C//DTD SVG 20010904//EN"
 "http://www.w3.org/TR/2001/REC-SVG-20010904/DTD/svg10.dtd">
<svg version="1.0" xmlns="http://www.w3.org/2000/svg"
 width="1110.000000pt" height="1110.000000pt" viewBox="0 0 1110.000000 1110.000000"
 preserveAspectRatio="xMidYMid meet">
<metadata>
Created by potrace 1.11, written by Peter Selinger 2001-2013
</metadata>
<g transform="translate(0.000000,1110.000000) scale(0.100000,-0.100000)"
fill="#000000" stroke="none">
<path d="M5497 10964 c-3 -3 6 -24 19 -48 139 -248 168 -546 80 -816 -17 -51
-120 -269 -148 -315 -7 -11 -100 -152 -207 -315 -221 -335 -276 -435 -319
-576 -34 -110 -40 -142 -51 -259 -17 -187 4 -324 70 -459 21 -44 37 -81 35
-83 -5 -5 -98 38 -141 66 -123 80 -204 181 -253 315 -24 65 -27 84 -27 221 0
83 4 191 9 240 14 151 12 241 -10 359 -8 48 -55 155 -94 215 -66 101 -200 217
-328 280 -83 42 -311 121 -348 121 -13 0 7 -32 94 -152 160 -221 185 -284 185
-468 -1 -173 -14 -262 -80 -520 -3 -14 -7 -29 -8 -35 -2 -5 -24 -91 -50 -190
-26 -99 -48 -187 -50 -195 -38 -193 -38 -194 -49 -169 -5 13 -18 43 -28 66
-10 23 -18 44 -18 47 0 27 -258 555 -310 635 -97 149 -271 268 -430 295 -19 3
-46 8 -59 10 -13 3 -56 8 -95 11 -39 3 -89 8 -111 10 -121 13 -287 17 -281 6
4 -6 12 -11 17 -11 15 0 166 -97 224 -144 177 -143 308 -349 339 -536 3 -19 9
-46 12 -60 3 -14 7 -135 8 -270 2 -135 7 -272 11 -305 18 -157 62 -302 130
-430 25 -46 45 -87 45 -90 0 -15 -127 2 -173 24 -80 37 -134 96 -264 292 -173
263 -286 377 -458 466 -222 114 -504 120 -738 16 -84 -37 -197 -103 -197 -114
0 -5 19 -10 43 -10 226 -6 439 -90 595 -234 100 -93 169 -198 239 -365 34 -81
51 -126 110 -285 88 -240 188 -413 321 -558 41 -45 43 -49 28 -66 -22 -24
-112 -69 -156 -77 -93 -18 -297 1 -375 35 -11 4 -38 14 -60 21 -111 35 -306
145 -636 360 -96 63 -210 130 -254 151 -226 105 -491 96 -785 -29 -122 -51
-229 -113 -335 -192 -81 -60 -189 -159 -182 -166 2 -2 37 -6 78 -9 102 -7 200
-16 224 -20 11 -2 41 -7 67 -10 121 -14 393 -101 460 -147 14 -10 29 -18 33
-18 11 0 146 -91 185 -125 129 -113 224 -210 370 -380 239 -278 390 -400 654
-530 210 -103 332 -137 495 -137 l96 -1 -55 -49 c-58 -52 -161 -108 -243 -132
-28 -8 -88 -14 -140 -14 -112 1 -208 26 -362 92 -150 66 -303 127 -327 131
-11 2 -27 6 -36 9 -60 18 -172 23 -259 12 -137 -17 -302 -114 -439 -259 -84
-88 -239 -299 -229 -309 3 -3 45 6 93 19 82 22 185 45 261 58 73 13 228 8 311
-9 195 -41 341 -108 559 -255 77 -53 220 -150 316 -215 97 -66 171 -122 165
-126 -6 -4 -39 -8 -72 -9 -34 -1 -64 -4 -67 -6 -3 -2 -53 -6 -111 -10 -58 -3
-112 -8 -120 -10 -8 -2 -49 -7 -90 -10 -41 -3 -86 -8 -100 -10 -14 -2 -50 -7
-80 -10 -355 -39 -571 -189 -731 -507 -46 -91 -133 -331 -127 -348 2 -4 36 23
77 61 158 147 370 263 558 305 65 14 258 13 323 -2 67 -15 81 -20 240 -77 110
-40 353 -102 455 -116 74 -10 294 -7 383 5 l54 7 -26 -49 c-59 -115 -202 -230
-339 -274 -67 -21 -78 -23 -207 -40 -126 -17 -141 -19 -195 -37 -170 -54 -304
-180 -394 -367 -57 -120 -76 -207 -76 -356 1 -113 4 -154 20 -230 2 -14 10
-49 16 -77 6 -29 14 -53 18 -53 4 0 21 30 36 66 96 225 292 410 524 494 146
54 206 62 441 65 118 1 235 5 260 9 104 17 226 57 322 107 42 22 78 -139 55
-246 -4 -16 -20 -57 -36 -90 -52 -106 -153 -188 -495 -405 -207 -131 -315
-220 -421 -345 -184 -218 -238 -457 -174 -767 18 -89 124 -466 133 -476 2 -1
20 46 39 105 49 150 98 252 172 363 122 183 318 346 515 429 30 13 69 29 85
37 26 11 258 88 470 155 150 47 314 118 400 172 163 102 340 302 424 479 32
68 71 202 71 244 0 44 16 32 48 -36 105 -226 89 -426 -49 -625 -30 -43 -43
-58 -150 -176 -139 -152 -210 -272 -248 -417 -26 -100 -22 -256 8 -367 27 -97
93 -239 151 -326 56 -83 149 -199 159 -199 5 0 9 17 9 38 -1 87 15 281 27 351
35 203 127 378 276 529 89 90 118 113 425 327 87 61 189 136 227 168 38 32 71
56 72 55 2 -2 -28 -129 -66 -283 -69 -279 -74 -301 -84 -352 -3 -16 -10 -41
-15 -58 -31 -103 -27 -271 8 -390 10 -33 61 -137 71 -145 4 -3 21 -24 39 -47
45 -57 427 -371 438 -360 2 2 -14 45 -36 97 -74 181 -96 294 -94 495 2 234 61
377 255 620 246 306 308 429 328 653 2 20 16 14 57 -27 51 -49 97 -137 119
-224 14 -57 15 -104 11 -290 -5 -246 2 -315 43 -452 23 -75 69 -170 106 -221
42 -57 143 -153 184 -174 148 -77 282 -113 461 -125 41 -3 92 -7 113 -9 20 -2
37 -1 37 2 0 4 -41 49 -91 100 -150 155 -232 302 -270 487 -17 82 -26 267 -16
320 3 11 8 43 12 70 7 56 25 123 80 300 46 151 68 268 68 355 0 56 -15 235
-20 244 -12 18 150 -2 197 -25 54 -26 191 -162 246 -244 86 -127 211 -418 318
-739 72 -218 119 -324 176 -401 128 -170 284 -240 535 -239 73 1 241 9 355 19
25 2 97 6 160 10 63 4 119 11 125 16 5 6 4 9 -4 9 -16 0 -225 123 -309 183
-205 143 -348 367 -377 587 -13 103 -15 138 -20 430 -2 168 -7 341 -10 386
-12 197 -126 503 -266 708 -59 88 -219 256 -292 306 -26 19 -43 36 -37 40 17
11 137 11 207 0 118 -19 229 -68 336 -148 58 -44 87 -72 165 -161 31 -35 121
-172 162 -245 77 -140 165 -243 271 -315 33 -23 63 -41 68 -41 4 0 22 -7 38
-15 70 -35 175 -52 298 -49 66 1 131 4 145 7 14 2 52 10 85 16 102 19 376 114
363 126 -2 2 -77 28 -168 59 -191 66 -266 99 -347 154 -191 131 -283 277 -408
642 -57 165 -83 234 -129 340 -12 29 -62 116 -101 175 -33 52 -35 58 -14 44
253 -166 673 -401 784 -439 76 -27 107 -32 184 -35 47 -1 115 3 150 11 105 22
276 113 538 287 40 27 42 37 6 31 -38 -7 -300 -8 -343 -1 -175 28 -292 74
-416 162 -83 59 -164 150 -266 297 -193 278 -342 418 -541 507 -38 17 -66 35
-63 40 19 30 322 49 461 29 58 -9 161 -34 190 -47 54 -24 169 -64 220 -76 17
-4 39 -9 50 -12 49 -12 223 -11 280 2 175 41 332 168 436 350 83 147 104 187
129 245 16 36 25 66 20 68 -4 2 -41 -17 -81 -41 -187 -110 -371 -165 -540
-161 -195 5 -353 69 -604 244 -214 149 -368 221 -526 244 -19 3 -45 9 -56 13
-20 8 -21 10 -6 53 49 145 216 254 470 304 192 38 287 45 680 48 278 1 363 8
467 34 171 44 296 147 375 309 45 93 64 156 85 280 15 88 19 128 31 290 3 44
8 113 10 153 4 46 2 72 -5 72 -5 0 -29 -19 -53 -42 -185 -185 -412 -335 -562
-372 -157 -39 -237 -38 -430 6 -49 11 -98 22 -109 24 -32 6 -126 34 -251 74
-271 88 -365 105 -580 105 -142 0 -203 -6 -310 -29 -254 -55 -395 -110 -526
-207 -37 -27 -69 -49 -72 -49 -3 0 1 23 8 50 7 28 11 50 9 50 -7 0 37 114 69
180 41 83 141 185 227 230 36 19 67 35 70 35 3 1 28 8 55 18 28 9 123 32 213
52 280 60 426 136 552 287 125 150 186 344 183 588 -1 97 -5 180 -10 180 -2 0
-49 -62 -105 -137 -56 -76 -118 -155 -139 -175 -111 -108 -273 -181 -454 -205
-54 -7 -260 -8 -730 -3 -88 1 -170 -1 -182 -4 -31 -7 -29 5 6 29 30 21 119 96
155 130 12 11 68 60 126 110 324 277 397 370 435 552 25 118 3 327 -54 513
-49 159 -57 184 -67 187 -6 2 -11 -2 -11 -9 -3 -73 -63 -256 -121 -368 -77
-148 -163 -246 -297 -335 -99 -65 -184 -102 -351 -150 -71 -21 -133 -41 -138
-46 -6 -5 -16 -9 -24 -9 -8 0 -57 -20 -109 -45 -137 -65 -210 -119 -374 -276
l-37 -36 -19 26 c-25 34 -53 116 -53 156 0 77 42 158 133 254 69 73 181 226
226 309 50 91 106 253 117 337 33 249 -37 465 -215 670 -60 68 -159 165 -169
165 -5 0 -1 -37 9 -82 64 -289 29 -510 -113 -721 -73 -108 -170 -193 -428
-375 -178 -126 -276 -229 -364 -382 -21 -36 -40 -67 -42 -69 -5 -5 -68 44
-104 82 -38 39 -83 134 -100 207 -32 136 -13 278 86 650 52 194 43 160 97 340
40 130 54 187 72 285 10 59 6 203 -9 275 -45 216 -152 336 -488 549 -73 47
-156 99 -184 117 -29 18 -54 31 -57 28z m363 -2968 c52 -4 104 -9 115 -11 11
-3 42 -7 68 -10 87 -9 292 -54 413 -90 592 -179 1108 -544 1469 -1040 233
-319 420 -745 481 -1092 2 -13 6 -35 9 -50 44 -233 53 -633 20 -863 -73 -495
-245 -917 -530 -1295 -107 -141 -147 -187 -275 -315 -659 -656 -1631 -945
-2560 -760 -30 6 -66 13 -78 16 -51 10 -224 59 -257 73 -11 5 -60 23 -110 41
-503 183 -984 558 -1301 1015 -234 337 -389 706 -458 1095 -34 189 -41 279
-41 495 0 203 8 309 31 445 8 47 17 99 20 115 18 105 94 357 152 500 48 120
206 424 232 445 3 3 16 21 28 41 30 50 151 210 209 278 166 193 444 429 658
558 287 174 579 289 903 357 153 32 251 45 392 53 63 3 116 6 117 8 5 3 193
-3 293 -9z"/>
<path d="M5674 7121 c-2 -2 -4 -553 -4 -1223 0 -670 -2 -1218 -5 -1218 -3 0
-23 9 -45 20 -235 120 -542 116 -770 -8 -156 -86 -289 -222 -359 -368 -64
-132 -90 -243 -89 -382 2 -630 657 -1034 1223 -755 245 121 419 362 462 639 3
22 6 534 7 1138 l1 1100 635 0 635 1 1 524 c0 448 -2 524 -14 529 -17 6 -1671
9 -1678 3z"/>
</g>
</svg>
